<svg xmlns="http://www.w3.org/2000/svg" xmlns:xlink="http://www.w3.org/1999/xlink" viewBox="0 0 47.31 7.35"><defs><style>.cls-1{fill:none;}.cls-2{clip-path:url(#clip-path);}</style><clipPath id="clip-path" transform="translate(0)"><rect class="cls-1" width="47.31" height="7.35"/></clipPath></defs><title>logo</title><g id="Layer_2" data-name="Layer 2"><g id="Layer_1-2" data-name="Layer 1"><g id="Artwork_4" data-name="Artwork 4"><g class="cls-2"><g class="cls-2"><path d="M11.33,6.19h.5a.58.58,0,0,1,.19,0,.29.29,0,0,1,.13.08.36.36,0,0,1,.07.1.27.27,0,0,1,0,.13h0a.27.27,0,0,1,0,.13l-.06.1-.1.07a.5.5,0,0,1-.13,0l.35.47h-.16l-.33-.44h-.32v.44h-.14Zm.49.58.12,0,.09,0a.16.16,0,0,0,.06-.08.16.16,0,0,0,0-.1h0A.18.18,0,0,0,12,6.37a.38.38,0,0,0-.22-.06h-.35v.46Z" transform="translate(0)"/><polygon points="13.34 6.18 14.17 6.18 14.17 6.3 13.47 6.3 13.47 6.7 14.1 6.7 14.1 6.81 13.47 6.81 13.47 7.21 14.18 7.21 14.18 7.33 13.34 7.33 13.34 6.18"/><path d="M15.68,6.18h.12l.52,1.15h-.13L16.05,7h-.62l-.14.3h-.13Zm.32.73-.26-.58-.26.58Z" transform="translate(0)"/><path d="M17.37,6.19h.4a.61.61,0,0,1,.24,0,.67.67,0,0,1,.2.12.57.57,0,0,1,.12.18.56.56,0,0,1,.05.23h0a.54.54,0,0,1-.05.22.62.62,0,0,1-.12.19.67.67,0,0,1-.2.12.61.61,0,0,1-.24,0h-.4Zm.4,1a.58.58,0,0,0,.19,0,.56.56,0,0,0,.15-.1.45.45,0,0,0,.1-.14.52.52,0,0,0,0-.18h0a.57.57,0,0,0,0-.18.45.45,0,0,0-.1-.14.4.4,0,0,0-.15-.1.58.58,0,0,0-.19,0H17.5v.9Z" transform="translate(0)"/><polygon points="19.83 6.88 19.35 6.18 19.51 6.18 19.9 6.76 20.29 6.18 20.44 6.18 19.96 6.88 19.96 7.33 19.83 7.33 19.83 6.88"/><polygon points="23.08 6.3 22.69 6.3 22.69 6.18 23.59 6.18 23.59 6.3 23.21 6.3 23.21 7.33 23.08 7.33 23.08 6.3"/><path d="M25.19,7.35a.47.47,0,0,1-.24,0,.57.57,0,0,1-.18-.12A.44.44,0,0,1,24.65,7a.59.59,0,0,1,0-.23h0a.59.59,0,0,1,0-.23.76.76,0,0,1,.12-.19A.83.83,0,0,1,25,6.21a.74.74,0,0,1,.48,0,.59.59,0,0,1,.18.13.76.76,0,0,1,.12.19.59.59,0,0,1,0,.23h0a.54.54,0,0,1,0,.22.52.52,0,0,1-.12.19.46.46,0,0,1-.18.13.52.52,0,0,1-.24,0m0-.12a.34.34,0,0,0,.18,0,.28.28,0,0,0,.14-.1A.42.42,0,0,0,25.6,7a.41.41,0,0,0,0-.19h0a.41.41,0,0,0,0-.19.6.6,0,0,0-.09-.15.71.71,0,0,0-.14-.1l-.18,0a.48.48,0,0,0-.18,0,.5.5,0,0,0-.14.1,1.3,1.3,0,0,0-.1.15.58.58,0,0,0,0,.19h0a.52.52,0,0,0,0,.18.56.56,0,0,0,.1.15.45.45,0,0,0,.14.1.39.39,0,0,0,.18,0" transform="translate(0)"/><polygon points="28.09 6.18 28.23 6.18 28.56 7.14 28.87 6.18 28.98 6.18 29.29 7.14 29.62 6.18 29.76 6.18 29.35 7.34 29.24 7.34 28.92 6.41 28.61 7.34 28.5 7.34 28.09 6.18"/><polygon points="30.81 6.18 31.64 6.18 31.64 6.3 30.94 6.3 30.94 6.7 31.57 6.7 31.57 6.81 30.94 6.81 30.94 7.21 31.65 7.21 31.65 7.33 30.81 7.33 30.81 6.18"/><path d="M33.15,6.18h.12l.53,1.15h-.14L33.52,7H32.9l-.14.3h-.13Zm.32.73-.26-.58L33,6.91Z" transform="translate(0)"/><path d="M34.84,6.19h.49a.5.5,0,0,1,.19,0,.32.32,0,0,1,.14.08.36.36,0,0,1,.07.1.51.51,0,0,1,0,.13h0a.51.51,0,0,1,0,.13.36.36,0,0,1-.07.1l-.1.07-.12,0,.35.47h-.16l-.33-.44H35v.44h-.13Zm.48.58.12,0,.1,0,.06-.08a.3.3,0,0,0,0-.1h0a.18.18,0,0,0-.08-.16.33.33,0,0,0-.21-.06H35v.46Z" transform="translate(0)"/><path d="M0,.07H1.09a2,2,0,0,1,.7.12,1.7,1.7,0,0,1,.55.34,1.57,1.57,0,0,1,.36.52,1.69,1.69,0,0,1,.12.64h0a1.75,1.75,0,0,1-.12.65,1.57,1.57,0,0,1-.36.52,1.7,1.7,0,0,1-.55.34,1.78,1.78,0,0,1-.7.13H0ZM1.09,3.12A1.75,1.75,0,0,0,1.71,3a1.53,1.53,0,0,0,.46-.3,1.37,1.37,0,0,0,.3-.45,1.42,1.42,0,0,0,.11-.55h0a1.41,1.41,0,0,0-.11-.54,1.27,1.27,0,0,0-.3-.45A1.38,1.38,0,0,0,1.71.4,1.75,1.75,0,0,0,1.09.29H.24V3.12Z" transform="translate(0)"/><path d="M5.41,3.4a1.6,1.6,0,0,1-.67-.14,1.64,1.64,0,0,1-.52-.37,1.63,1.63,0,0,1-.33-.54,1.69,1.69,0,0,1-.12-.64h0a1.73,1.73,0,0,1,.12-.64A1.87,1.87,0,0,1,4.22.52,1.59,1.59,0,0,1,4.74.15,1.69,1.69,0,0,1,5.42,0a1.6,1.6,0,0,1,.67.14,1.41,1.41,0,0,1,.52.37,1.53,1.53,0,0,1,.33.53,1.77,1.77,0,0,1,.12.64h0a1.78,1.78,0,0,1-.12.65,1.87,1.87,0,0,1-.33.54,1.76,1.76,0,0,1-.52.37,1.69,1.69,0,0,1-.68.14m0-.23A1.3,1.3,0,0,0,6,3.06a1.4,1.4,0,0,0,.44-.31,1.61,1.61,0,0,0,.29-.47,1.52,1.52,0,0,0,.1-.57h0a1.56,1.56,0,0,0-.1-.57A1.61,1.61,0,0,0,6.42.66,1.57,1.57,0,0,0,6,.35a1.37,1.37,0,0,0-1.12,0,1.25,1.25,0,0,0-.44.31,1.56,1.56,0,0,0-.29.46,1.56,1.56,0,0,0-.1.57H4a1.58,1.58,0,0,0,.11.58,1.38,1.38,0,0,0,.29.46,1.43,1.43,0,0,0,.44.32,1.47,1.47,0,0,0,.56.11" transform="translate(0)"/><polygon points="8.16 0.07 8.39 0.07 10.64 2.91 10.64 0.07 10.88 0.07 10.88 3.34 10.7 3.34 8.4 0.43 8.4 3.34 8.16 3.34 8.16 0.07"/><path d="M11.63.85a.84.84,0,0,0,.22-.17A.36.36,0,0,0,11.9.46h-.13V.07h.31V.41A.61.61,0,0,1,12,.76a.63.63,0,0,1-.3.2Z" transform="translate(0)"/><polygon points="14.1 0.29 12.96 0.29 12.96 0.07 15.48 0.07 15.48 0.29 14.34 0.29 14.34 3.34 14.1 3.34 14.1 0.29"/><polygon points="18.79 0.29 17.65 0.29 17.65 0.07 20.17 0.07 20.17 0.29 19.03 0.29 19.03 3.34 18.79 3.34 18.79 0.29"/><polygon points="21.18 0.07 23.51 0.07 23.51 0.29 21.42 0.29 21.42 1.57 23.3 1.57 23.3 1.8 21.42 1.8 21.42 3.12 23.53 3.12 23.53 3.34 21.18 3.34 21.18 0.07"/><polygon points="24.58 0.07 24.82 0.07 24.82 3.12 26.74 3.12 26.74 3.34 24.58 3.34 24.58 0.07"/><polygon points="27.74 0.07 27.98 0.07 27.98 3.12 29.9 3.12 29.9 3.34 27.74 3.34 27.74 0.07"/><polygon points="32.3 0.07 32.53 0.07 33.84 2 35.16 0.07 35.38 0.07 35.38 3.34 35.14 3.34 35.14 0.5 33.85 2.38 33.83 2.38 32.54 0.5 32.54 3.34 32.3 3.34 32.3 0.07"/><polygon points="40.32 0.07 40.55 0.07 41.86 2 43.17 0.07 43.4 0.07 43.4 3.34 43.16 3.34 43.16 0.5 41.87 2.38 41.85 2.38 40.56 0.5 40.56 3.34 40.32 3.34 40.32 0.07"/><polygon points="37.89 0 37.65 0 36.11 3.34 36.36 3.34 37.77 0.27 39.16 3.34 39.43 3.34 37.89 0"/><polygon points="45.76 0 45.52 0 43.98 3.34 44.24 3.34 45.64 0.27 47.03 3.34 47.3 3.34 45.76 0"/></g></g></g></g></g></svg>